<?xml version="1.0" standalone="no"?>
<!DOCTYPE svg PUBLIC "-//W3C//DTD SVG 1.1//EN" "http://www.w3.org/Graphics/SVG/1.1/DTD/svg11.dtd" >
<svg xmlns="http://www.w3.org/2000/svg">
<metadata></metadata>
<defs>
<font id="psl_omyimregular" horiz-adv-x="757" >
<font-face units-per-em="2048" ascent="1638" descent="-410" />
<missing-glyph horiz-adv-x="471" />
<glyph horiz-adv-x="0" />
<glyph unicode="&#xd;" horiz-adv-x="471" />
<glyph unicode=" "  horiz-adv-x="471" />
<glyph unicode="&#x09;" horiz-adv-x="471" />
<glyph unicode="&#xa0;" horiz-adv-x="471" />
<glyph unicode="!" horiz-adv-x="374" d="M88 78q0 45 29.5 74.5t75.5 29.5q43 0 72.5 -29.5t29.5 -74.5q0 -41 -31 -72t-71 -31q-43 0 -74 29t-31 74zM100 434v412q0 141 93 141q90 0 90 -141v-412q0 -143 -90 -143q-92 0 -93 143z" />
<glyph unicode="&#x22;" horiz-adv-x="421" d="M59 580v368h95v-368h-95zM279 580v368h96v-368h-96z" />
<glyph unicode="#" horiz-adv-x="1028" d="M41 279l39 100h192l70 201h-203l39 102h201l98 285h113l-98 -285h200l99 285h110l-98 -285h188l-37 -102h-188l-68 -201h195l-37 -100h-194l-101 -281h-110l98 281h-201l-100 -281h-111l99 281h-195zM381 379h207l69 201h-206z" />
<glyph unicode="$" horiz-adv-x="727" d="M37 121q0 37 25.5 60.5t68.5 23.5q33 0 107 -27q82 -25 133 -24q53 0 90 34.5t37 83.5q0 59 -43 91t-142 61q-135 41 -198 96q-66 61 -66 168q0 111 70.5 188.5t202.5 102.5v84q0 59 36 59q41 0 41 -59v-78q240 -23 240 -131q0 -78 -84 -78q-18 0 -83.5 16.5t-90.5 16.5 q-59 0 -93 -27.5t-34 -72.5q0 -59 76 -93l28 -10q27 -10 84 -31q260 -81 260 -282q0 -123 -81.5 -209t-221.5 -100v-105q0 -59 -41 -59q-37 0 -36 59v101q-137 14 -211 50t-74 91z" />
<glyph unicode="%" horiz-adv-x="929" d="M18 768q0 88 56.5 146.5t138.5 58.5q39 0 75 -16.5t62.5 -44t42 -64.5t15.5 -80t-15.5 -80t-42 -65.5t-62.5 -45t-75 -16.5q-86 0 -140.5 59.5t-54.5 147.5zM125 768q0 -35 26.5 -63.5t61.5 -28.5t61.5 26.5t26.5 65.5q0 37 -26.5 63.5t-61.5 26.5q-37 0 -62.5 -25.5 t-25.5 -64.5zM160 41q0 29 18 63l455 807q39 68 82 68q61 0 61 -59q0 -33 -20 -66l-453 -807q-41 -66 -82 -65q-27 0 -44 15t-17 44zM532 193q0 43 15.5 80.5t41 65.5t61.5 44t77 16q39 0 75 -16t62.5 -44t42 -65.5t15.5 -80.5q0 -88 -56.5 -144.5t-138.5 -56.5t-138.5 56 t-56.5 145zM639 193q0 -37 24.5 -64t63.5 -27q35 0 60.5 28t25.5 63q0 39 -24.5 65.5t-61.5 26.5t-62.5 -26t-25.5 -66z" />
<glyph unicode="&#x26;" horiz-adv-x="911" d="M31 262q0 180 237 301q-102 121 -102 209q0 94 71.5 154.5t194.5 60.5t194.5 -63.5t71.5 -161.5q0 -141 -174 -248l162 -190q113 141 156 141q27 0 47 -22.5t20 -53.5q0 -57 -129 -180q23 -29 36 -45.5t18 -20.5q37 -49 36 -86q0 -33 -20.5 -53t-54.5 -20q-43 0 -140 108 q-133 -117 -313 -117q-133 0 -223 78q-88 82 -88 209zM219 266q0 -63 42 -105t110 -42q47 0 92 21.5t98 72.5l-196 229q-145 -66 -146 -176zM334 768q0 -68 92 -143q127 47 127 137q0 39 -32 70.5t-81 31.5q-45 0 -75.5 -28.5t-30.5 -67.5z" />
<glyph unicode="'" horiz-adv-x="204" d="M59 580v368h95v-368h-95z" />
<glyph unicode="(" horiz-adv-x="454" d="M121 428q0 66 6 128t16 126q20 123 66 238q43 111 98 110q66 0 66 -69q-20 -63 -35.5 -126t-30.5 -126q-16 -72 -24.5 -142.5t-8.5 -138.5q0 -141 32 -272t67 -254q0 -70 -66 -70q-53 0 -92 88q-43 104 -68.5 235.5t-25.5 272.5z" />
<glyph unicode=")" horiz-adv-x="454" d="M88 -98q39 123 69.5 256t30.5 270q0 145 -30 279q-16 63 -35 126.5t-35 127.5q0 70 68 69q53 0 90 -88q45 -104 70.5 -235.5t25.5 -278.5q0 -256 -86 -477q-45 -119 -100 -119q-68 0 -68 70z" />
<glyph unicode="*" horiz-adv-x="655" d="M111 631q0 37 63 61q12 2 111 37q-29 10 -55.5 18.5t-53.5 18.5q-66 29 -65 63q0 55 49 56q29 0 73 -39q45 -37 68 -55q-8 63 -13 95t-5 42q0 59 49 59q53 0 53 -59q0 -16 -8 -60.5t-12 -79.5q20 16 40.5 35t43.5 37q33 25 57 25q18 0 32.5 -16.5t14.5 -39.5 q0 -37 -59 -61q-4 -2 -32 -12.5t-79 -26.5q41 -14 67.5 -23.5t38.5 -13.5q64 -24 64 -61q0 -25 -13.5 -40.5t-33.5 -15.5q-27 0 -57 25q-23 20 -44.5 38.5t-39.5 35.5q4 -23 8 -49.5t8 -55.5q2 -10 3 -19t1 -18q0 -61 -53 -61q-49 0 -49 61q0 12 1 24.5t3 25.5q14 78 14 90 q-4 -4 -21.5 -17.5t-46.5 -40.5q-45 -39 -73 -39q-20 0 -34.5 16.5t-14.5 39.5z" />
<glyph unicode="+" d="M61 350v107h265v264h106v-264h264v-107h-264v-264h-106v264h-265z" />
<glyph unicode="," horiz-adv-x="409" d="M16 -127q0 27 19 64l110 196q33 70 82 70q29 0 50.5 -19.5t21.5 -52.5q0 -18 -18 -63l-109 -199q-37 -68 -84 -68q-31 0 -51.5 20.5t-20.5 51.5z" />
<glyph unicode="-" horiz-adv-x="555" d="M49 375q0 92 94 92h281q90 0 90 -92t-92 -92h-281q-92 0 -92 92z" />
<glyph unicode="." horiz-adv-x="409" d="M96 113q0 49 33 86t78 37t75.5 -35t30.5 -88q0 -51 -29.5 -85t-76.5 -34t-79 33.5t-32 85.5z" />
<glyph unicode="/" horiz-adv-x="477" d="M-55 39q0 27 20 59l424 820q33 74 80 73q33 0 54.5 -19t21.5 -50q0 -23 -19 -60l-428 -821q-35 -68 -82 -68q-27 0 -49 16.5t-22 49.5z" />
<glyph unicode="0" d="M39 479q0 252 98 385q90 121 242 121q150 0 239 -121q101 -131 101 -385t-98 -385q-90 -117 -242 -117t-240 117q-100 131 -100 385zM240 479q0 -160 37.5 -244.5t101.5 -84.5q61 0 100 84.5t39 244.5t-38 245t-101 85q-61 0 -100 -85t-39 -245z" />
<glyph unicode="1" d="M129 874q0 86 141 87h113q109 0 109 -144v-684q0 -139 -97 -139q-96 0 -96 139v651h-37q-133 0 -133 90z" />
<glyph unicode="2" d="M51 86q0 39 72 123q33 35 57.5 62.5t44.5 50.5q252 285 252 376q0 51 -28.5 82t-73.5 31q-39 0 -71 -27.5t-52 -87.5q-10 -29 -18.5 -48t-14.5 -27q-20 -27 -59 -27q-41 0 -66.5 27.5t-25.5 70.5q0 45 15 89t50 85q96 121 250 121q135 0 216 -76.5t81 -199.5 q0 -109 -92 -234q-72 -98 -271 -301h246q142 0 142 -90q0 -86 -142 -86h-395q-117 0 -117 86z" />
<glyph unicode="3" d="M47 229q0 41 22.5 65.5t59.5 24.5q25 0 44.5 -13t41.5 -42q43 -66 64 -80q41 -35 96 -34q55 0 94 40.5t39 102.5q0 63 -36 92t-118 41q-80 14 -80 84q0 37 17.5 54.5t62.5 29.5q117 27 117 119q0 100 -98 100q-31 6 -57.5 -12.5t-52 -44t-53.5 -47t-58 -21.5 q-31 0 -53.5 22.5t-22.5 57.5q0 76 92 147q96 72 209 72q61 0 112.5 -19.5t88 -53t57 -80t20.5 -101.5q0 -59 -28.5 -106t-96.5 -99q175 -94 175 -252q0 -131 -95 -217q-94 -84 -239 -84q-115 0 -209 68q-55 43 -85 92t-30 94z" />
<glyph unicode="4" d="M8 287q0 29 19.5 64.5t31.5 56.5l271 466q33 51 68.5 76t82.5 25q76 0 117 -43t41 -144v-409h39q39 0 59.5 -24.5t20.5 -57.5q0 -35 -20.5 -58.5t-59.5 -23.5h-39v-123q0 -100 -92 -100q-78 0 -78 108v115h-342q-119 0 -119 72zM231 379h238v422z" />
<glyph unicode="5" d="M49 154q0 82 76 82q29 0 96 -43q72 -41 123 -41q61 0 107.5 48t46.5 119q0 72 -38 114t-102 42q-35 0 -104 -20q-47 -12 -61 -13q-68 0 -68 80l6 74l31 258q8 66 34.5 86.5t94.5 20.5h272q127 0 127 -87q0 -88 -119 -88h-243l-21 -159q39 10 66.5 14t46.5 4 q119 0 198.5 -90t79.5 -223q0 -158 -98 -258q-98 -98 -254 -99q-123 0 -211 52q-86 51 -86 127z" />
<glyph unicode="6" d="M37 313q0 209 223 494q39 49 68.5 83t50.5 52q51 49 90 49q37 0 63.5 -26.5t26.5 -61.5q0 -33 -65 -110q-106 -119 -158 -195l115 10q111 0 186 -88q78 -90 78 -215q0 -143 -101 -237q-102 -92 -249 -93q-143 0 -236 93q-92 94 -92 245zM229 301q0 -63 43 -108.5 t103 -45.5q59 0 101 44t42 110t-42 110t-101 44t-102.5 -43t-43.5 -111z" />
<glyph unicode="7" d="M47 870q0 90 117 91h385q147 -1 147 -107q0 -29 -18 -78l-324 -708q-49 -92 -104 -93q-41 0 -69.5 25t-28.5 66q0 18 7 39.5t21 52.5l299 628h-299q-70 0 -101.5 16.5t-31.5 67.5z" />
<glyph unicode="8" d="M39 279q0 78 35 138t110 109q-57 47 -79.5 93.5t-22.5 105.5q0 109 84 186q82 76 211 76q131 0 213 -76q86 -74 86 -186q0 -111 -101 -199q142 -95 142 -247q0 -127 -96 -218q-96 -86 -244 -86q-150 0 -244 86q-94 88 -94 218zM229 299q0 -68 43 -113t105 -45 q61 0 106 45t45 113t-45 115t-106 47q-59 0 -103.5 -46t-44.5 -116zM260 707q0 -49 35 -86t82 -37q49 0 85 36t36 87q0 49 -36 84.5t-85 35.5q-47 0 -82 -34.5t-35 -85.5z" />
<glyph unicode="9" d="M39 651q0 143 98 240q100 98 252 98q141 0 234 -94q92 -96 92 -246q0 -211 -223 -495q-39 -47 -69 -81t-50 -55q-51 -45 -88 -45t-64.5 26t-27.5 60q0 33 65 111q106 119 160 197l-109 -13q-117 0 -192 86q-78 90 -78 211zM236 659q0 -68 40.5 -110.5t102.5 -42.5 q59 0 101 43.5t42 109.5t-42 110t-101 44t-101 -44t-42 -110z" />
<glyph unicode=":" horiz-adv-x="409" d="M96 102q0 45 33 78t78 33q47 0 76.5 -32t29.5 -79q0 -49 -29.5 -78.5t-76.5 -29.5q-45 0 -78 30.5t-33 77.5zM96 532q0 47 33 80t78 33t75.5 -33t30.5 -80t-29.5 -78.5t-76.5 -31.5t-79 31.5t-32 78.5z" />
<glyph unicode=";" horiz-adv-x="409" d="M16 -127q0 27 19 64l110 196q33 70 82 70q29 0 50.5 -19.5t21.5 -52.5q0 -18 -18 -63l-109 -199q-37 -68 -84 -68q-31 0 -51.5 20.5t-20.5 51.5zM96 535q0 45 33 77.5t78 32.5q47 0 76.5 -31.5t29.5 -78.5t-29.5 -79t-76.5 -32t-79 31.5t-32 79.5z" />
<glyph unicode="&#x3c;" horiz-adv-x="1116" d="M182 344v119l760 325v-118l-627 -264l627 -271v-117z" />
<glyph unicode="=" d="M61 238v106h635v-106h-635zM61 463v106h635v-106h-635z" />
<glyph unicode="&#x3e;" horiz-adv-x="1116" d="M182 18v117l631 271l-631 264v118l760 -325v-119z" />
<glyph unicode="?" horiz-adv-x="679" d="M10 750q0 90 88 159q88 74 224 74q137 0 227 -86q88 -86 88 -209q0 -106 -64.5 -181t-177.5 -95v-43q0 -96 -88 -97q-43 0 -66.5 21.5t-23.5 73.5v104q0 57 35 74q23 8 47.5 14t48.5 14q88 33 88 127q0 43 -33.5 75t-80.5 32q-76 0 -138 -70q-23 -23 -34 -35t-13 -14 q-29 -23 -53 -22q-31 0 -52.5 23.5t-21.5 60.5zM201 78q0 43 30.5 73.5t73.5 30.5q45 0 75 -29.5t30 -74.5q0 -41 -31 -72t-74 -31t-73.5 29t-30.5 74z" />
<glyph unicode="@" horiz-adv-x="1380" d="M72 342q0 229 137 397q197 244 543 244q113 0 211 -29.5t170 -87.5q176 -139 176 -358q0 -225 -166 -361q-94 -76 -213 -75q-59 0 -89 20.5t-40 79.5q-102 -98 -217 -98q-205 0 -205 221q0 156 90 264q88 106 225 107q55 0 94 -21.5t66 -77.5l39 74h100l-96 -389l-4 -31 q0 -59 74 -59q59 0 114 55q123 117 123 293q0 164 -127 272q-127 111 -329 111q-190 0 -330 -90q-246 -170 -246 -461q0 -215 143 -340q143 -123 381 -123q209 0 404 123l43 -61q-207 -147 -443 -148q-258 0 -424 129q-205 150 -204 420zM502 291q0 -139 116 -139 q57 0 106.5 44t70.5 119l34 152q-18 121 -127 121q-80 0 -141 -88q-59 -90 -59 -209z" />
<glyph unicode="A" horiz-adv-x="827" d="M4 76q0 41 8 59l256 705q51 135 156 135q100 0 147 -121l250 -711q15 -44 15 -69q0 -39 -27 -61.5t-68 -22.5q-76 0 -100 94l-31 102h-389l-37 -110q-29 -86 -90 -86q-39 0 -64.5 23.5t-25.5 62.5zM272 362h283l-133 445z" />
<glyph unicode="B" horiz-adv-x="817" d="M92 125v694q0 78 27.5 110t107.5 32h185q141 0 215.5 -60.5t74.5 -171.5q0 -66 -34.5 -113t-120.5 -86q123 -33 177 -91t54 -156q0 -135 -85 -209t-247 -74h-221q-78 0 -105.5 25.5t-27.5 99.5zM281 162h129q170 0 170 129q0 127 -174 127h-125v-256zM281 573h110 q55 0 91 32t36 81q0 53 -34.5 84t-94.5 31h-108v-228z" />
<glyph unicode="C" horiz-adv-x="796" d="M41 479q0 229 133 368.5t334 139.5q59 0 110.5 -11t88 -30.5t58 -45.5t21.5 -54q0 -33 -22.5 -59.5t-54.5 -26.5q-25 0 -113 26q-45 14 -86 15q-117 0 -187.5 -86t-70.5 -240q0 -147 70.5 -232t193.5 -85q53 0 121 24q66 27 88 27q29 0 51.5 -24.5t22.5 -59.5 q0 -61 -82 -105.5t-211 -44.5q-209 0 -338 136q-127 139 -127 368z" />
<glyph unicode="D" horiz-adv-x="927" d="M92 125v694q0 78 27.5 110t107.5 32h181q94 0 161.5 -15.5t122.5 -52.5q94 -57 147.5 -164.5t53.5 -236.5q0 -113 -32 -204t-91 -154.5t-145 -98.5t-195 -35h-205q-78 0 -105.5 25.5t-27.5 99.5zM281 176h118q285 1 285 316q0 292 -287 292h-2h-114v-608z" />
<glyph unicode="E" horiz-adv-x="661" d="M92 125v694q0 78 27.5 110t107.5 32h254q141 0 142 -89q0 -88 -142 -88h-200v-211h174q143 0 143 -90q0 -86 -143 -86h-174v-221h206q142 0 142 -90q0 -86 -142 -86h-262q-78 0 -105.5 25.5t-27.5 99.5z" />
<glyph unicode="F" horiz-adv-x="638" d="M92 131v688q0 78 27.5 110t107.5 32h254q142 -1 142 -89t-142 -88h-200v-211h174q143 0 143 -90q0 -86 -143 -86h-174v-266q0 -139 -95 -139q-94 0 -94 139z" />
<glyph unicode="G" horiz-adv-x="962" d="M41 481q0 233 131 370.5t348 137.5q152 0 248 -59.5t96 -130.5q0 -37 -21.5 -62.5t-54.5 -25.5q-16 0 -145 63q-66 33 -129 33q-123 0 -193.5 -84t-70.5 -238t71.5 -242.5t190.5 -88.5q98 0 156.5 61t58.5 174h-94q-72 0 -105.5 19.5t-33.5 66.5q0 88 139 88h164 q76 0 107.5 -29.5t31.5 -103.5q0 -197 -121 -330q-119 -125 -319 -125q-199 0 -328 138q-127 145 -127 368z" />
<glyph unicode="H" horiz-adv-x="999" d="M92 131v698q0 143 94 144q94 0 95 -144v-251h444v251q0 143 96 144q94 0 94 -144v-698q0 -139 -94 -139q-51 0 -73.5 32.5t-22.5 106.5v270h-444v-270q0 -139 -95 -139q-94 0 -94 139z" />
<glyph unicode="I" horiz-adv-x="374" d="M96 131v698q0 143 97 144q94 0 94 -144v-698q0 -139 -94 -139q-51 0 -74 32.5t-23 106.5z" />
<glyph unicode="J" horiz-adv-x="585" d="M-2 121q0 39 21.5 63.5t62.5 24.5q31 0 76 -27q43 -24 63 -24h2q90 0 90 202v469q0 143 95 144q96 0 96 -144v-542q0 -309 -273 -310q-104 0 -168.5 41t-64.5 103z" />
<glyph unicode="K" horiz-adv-x="817" d="M92 131v698q0 143 94 144q94 0 95 -144v-290l313 360q10 10 19.5 20.5t19.5 20.5q33 31 65 31q35 0 58.5 -25.5t23.5 -60.5q0 -25 -11 -46.5t-40 -54.5l-250 -264l309 -344q52 -57 52 -100q0 -35 -27 -59.5t-61 -24.5q-29 0 -56 16q-2 2 -14 14.5t-37 38.5l-364 408v-338 q0 -139 -95 -139q-94 0 -94 139z" />
<glyph unicode="L" horiz-adv-x="602" d="M92 125v704q0 143 94 144q94 0 95 -144v-653h206q142 0 142 -90q0 -86 -142 -86h-262q-78 0 -105.5 25.5t-27.5 99.5z" />
<glyph unicode="M" horiz-adv-x="1157" d="M25 88v29q0 12 8 39l119 678q14 74 43.5 106.5t93.5 32.5q102 0 137 -121l166 -596l156 596q29 121 137 121q66 0 97.5 -35t43.5 -113l109 -684l6 -53q0 -45 -27 -71.5t-70 -26.5q-78 0 -94 114l-86 596q-72 -309 -121 -474t-77 -206q-17 -30 -74 -30h-4q-90 0 -115 100 l-160 612l-96 -583q-16 -127 -100 -127q-41 0 -66.5 25.5t-25.5 70.5z" />
<glyph unicode="N" horiz-adv-x="999" d="M92 131v707q0 135 86 135q53 0 107 -68l440 -590v514q0 143 96 144q94 0 94 -144v-723q0 -120 -85 -120h-1q-61 0 -114 71l-434 582v-508q0 -139 -95 -139q-94 0 -94 139z" />
<glyph unicode="O" horiz-adv-x="1007" d="M41 479q0 229 129 368.5t338 139.5q205 0 334 -141q131 -138 131 -367t-129 -366q-125 -137 -336 -138q-209 0 -338 137.5t-129 366.5zM252 477q0 -147 69.5 -235t186.5 -88q113 0 183.5 86.5t70.5 236.5q0 156 -68.5 243t-185.5 87t-186.5 -88t-69.5 -242z" />
<glyph unicode="P" horiz-adv-x="802" d="M92 131v688q0 78 27.5 110t107.5 32h203q160 0 250 -86.5t90 -233.5q0 -154 -84 -239t-240 -85h-165v-186q0 -139 -95 -139q-94 0 -94 139zM281 489h114q168 0 168 152q0 145 -168 145h-114v-297z" />
<glyph unicode="Q" horiz-adv-x="1007" d="M41 479q0 229 129 368.5t338 139.5q205 0 334 -141q131 -137 131 -367q0 -176 -94 -319l79 -76q43 -41 43 -84q0 -29 -22.5 -53.5t-56.5 -24.5q-43 0 -86 43l-84 74q-109 -61 -244 -62q-209 0 -338 136q-129 137 -129 366zM252 477q0 -147 70.5 -234t187.5 -87q25 0 44 5 t56 23q-73 62 -73 106q0 32 19 53.5t50 21.5q37 0 119 -82q37 112 37 194q0 156 -68.5 243t-185.5 87t-186.5 -87t-69.5 -243z" />
<glyph unicode="R" horiz-adv-x="790" d="M92 131v688q0 78 27.5 110t107.5 32h176q174 0 265.5 -79t91.5 -214q0 -104 -62.5 -170t-187.5 -86l197 -224q59 -65 59 -118q0 -37 -25.5 -60.5t-62.5 -23.5q-29 0 -53.5 16t-55.5 53l-288 367v-291q0 -139 -95 -139q-94 0 -94 139zM281 512h120q158 0 158 139 q0 135 -156 135h-122v-274z" />
<glyph unicode="S" horiz-adv-x="727" d="M37 117q0 86 94 86q33 0 107 -27q79 -24 129 -24h4q53 0 90 34.5t37 83.5q0 61 -47 97q-31 25 -138 57q-135 41 -198 96q-66 61 -66 168q0 131 94 213q94 86 246 86q111 0 180.5 -37t69.5 -94q0 -78 -84 -78q-18 0 -83.5 16.5t-90.5 16.5q-59 0 -93 -27.5t-34 -72.5 q0 -59 76 -93q14 -6 41.5 -16t70.5 -24q131 -43 195.5 -112t64.5 -175q0 -141 -99 -227.5t-265 -86.5q-129 0 -215 39t-86 101z" />
<glyph unicode="T" horiz-adv-x="618" d="M-18 872q0 88 137 89h389q141 -1 141 -89t-141 -88h-100v-653q0 -139 -95 -139q-51 0 -73.5 32.5t-22.5 106.5v653h-98q-137 0 -137 88z" />
<glyph unicode="U" horiz-adv-x="980" d="M92 410v419q0 143 94 144q94 0 95 -144v-395q0 -280 213 -280h2q213 0 213 280v395q0 143 96 144q94 0 94 -144v-419q0 -211 -105.5 -323t-297.5 -112q-193 0 -298.5 109t-105.5 326z" />
<glyph unicode="V" horiz-adv-x="759" d="M-10 872q0 41 26.5 70t69.5 29q51 0 86 -86l225 -613l205 602q16 53 35.5 75t58.5 22q92 0 92 -88q0 -20 -16 -74l-285 -746q-37 -77 -98 -77h-2q-63 0 -90 69l-297 760q-10 37 -10 57z" />
<glyph unicode="W" horiz-adv-x="1226" d="M14 891q0 37 28 60.5t69 23.5q74 0 90 -84l131 -633l182 633q20 82 109 82q82 0 104 -84l172 -633l137 616q12 55 33 78t64 23q41 0 67.5 -24.5t26.5 -61.5q0 -41 -8 -64l-172 -698q-16 -74 -44 -103.5t-92 -29.5q-102 0 -135 110l-160 568l-157 -555q-29 -123 -144 -123 q-104 0 -135 133l-164 719z" />
<glyph unicode="X" horiz-adv-x="763" d="M-10 70q0 27 16 63q4 8 10.5 17.5t16.5 23.5l248 350l-191 262q-14 20 -21.5 34t-11.5 18q-14 27 -14 51q0 37 25.5 60.5t66.5 23.5q47 0 101 -80l155 -215l150 219q59 78 106 78q33 0 57.5 -24.5t24.5 -55.5q0 -33 -19.5 -62.5t-27.5 -41.5l-186 -265l243 -354 q14 -20 21.5 -33.5t11.5 -17.5q16 -28 16 -53q0 -31 -24.5 -53.5t-58.5 -22.5q-55 0 -111 74l-211 305l-211 -303q-55 -74 -102 -74q-35 0 -57.5 22.5t-22.5 53.5z" />
<glyph unicode="Y" horiz-adv-x="677" d="M-18 891q0 33 24.5 57.5t63.5 24.5q45 0 100 -80l182 -262l183 266q49 78 104 78q33 0 57.5 -24.5t24.5 -55.5q0 -27 -14 -53q-2 -2 -10.5 -15.5t-24.5 -35.5l-230 -332v-328q0 -139 -94 -139q-96 0 -96 139v328l-227 327q-12 20 -18.5 34t-10.5 18q-14 27 -14 53z" />
<glyph unicode="Z" horiz-adv-x="700" d="M0 96q0 37 12 66q8 14 43 61l420 565h-323q-141 0 -142 86q0 86 142 87h380q92 0 133.5 -20.5t41.5 -74.5q0 -31 -19 -63q-4 -8 -15 -23.5t-28 -40.5l-409 -563h350q141 0 141 -90q0 -86 -141 -86h-451q-74 0 -104.5 21.5t-30.5 74.5z" />
<glyph unicode="[" horiz-adv-x="454" d="M104 -49v944q0 76 29 108.5t109 32.5h100q90 0 90 -57q0 -55 -92 -55h-82v-983h84q90 -1 90 -60q0 -57 -92 -57h-98q-80 0 -109 26.5t-29 100.5z" />
<glyph unicode="\" horiz-adv-x="477" d="M-55 922q0 29 22.5 49t48.5 20q47 0 82 -73l428 -820q19 -36 19 -59q0 -29 -22.5 -47.5t-55.5 -18.5q-47 0 -80 68l-422 821q-4 10 -8 18.5t-6 12.5q-6 14 -6 29z" />
<glyph unicode="]" horiz-adv-x="454" d="M31 -119q0 59 90 60h84v983h-82q-92 0 -92 55q0 57 90 57h100q82 0 109.5 -31.5t27.5 -109.5v-944q0 -72 -27.5 -99.5t-107.5 -27.5h-100q-92 0 -92 57z" />
<glyph unicode="^" horiz-adv-x="1345" d="M303 594l295 371h156l295 -371h-115l-256 276l-260 -276h-115z" />
<glyph unicode="_" horiz-adv-x="655" d="M4 -180h655v-135h-655v135z" />
<glyph unicode="`" horiz-adv-x="655" d="M168 1016q0 33 19.5 54.5t48.5 21.5q41 0 65 -41l102 -152q19 -28 19 -55q0 -63 -57 -64q-29 0 -62 39l-104 129q-31 39 -31 68z" />
<glyph unicode="a" horiz-adv-x="796" d="M35 360q0 162 94 269q95 108 225 108h2q98 0 179 -90q43 82 100 82q90 0 90 -145v-449q0 -141 -90 -141q-33 0 -54.5 17.5t-45.5 72.5q-80 -96 -187 -96q-129 0 -221 102q-92 106 -92 270zM227 362q0 -94 44 -146t114 -52q68 0 112 53t44 145q0 88 -44 141.5t-112 53.5 q-70 0 -114 -51t-44 -144z" />
<glyph unicode="b" horiz-adv-x="796" d="M80 133v756q0 143 92 143t92 -143v-238q92 80 187 80q135 0 223 -106q92 -105 92 -269q0 -156 -94 -262q-92 -104 -221 -104q-55 0 -96.5 17.5t-82.5 66.5q-47 -80 -100 -80q-92 0 -92 139zM258 360q0 -92 46 -147t116 -55q68 0 114 55t46 147t-45.5 147.5t-114.5 55.5 q-70 0 -116 -55t-46 -148z" />
<glyph unicode="c" horiz-adv-x="620" d="M35 360q0 84 25.5 154t72.5 119t113.5 76.5t146.5 27.5q100 0 162.5 -33.5t62.5 -91.5q0 -33 -20 -55t-53 -22q-25 0 -47 8q-75 24 -103 24h-2q-76 0 -122 -54t-46 -148q0 -98 45 -151.5t131 -53.5q29 0 84.5 16.5t63.5 16.5q69 0 69 -78q0 -55 -67.5 -92t-171.5 -37 q-154 0 -248 100q-96 109 -96 274z" />
<glyph unicode="d" horiz-adv-x="796" d="M35 362q0 158 92 263q94 106 227 106q53 0 91 -15.5t96 -64.5v238q0 143 94 143q90 0 90 -143v-756q0 -139 -90 -139q-57 0 -100 80q-78 -84 -181 -84q-131 0 -225 104q-94 106 -94 268zM225 360q0 -92 46 -147t116 -55t114 54t44 148q0 92 -44 147.5t-114 55.5t-116 -55 t-46 -148z" />
<glyph unicode="e" horiz-adv-x="739" d="M35 358q0 164 98 272.5t252 108.5q145 0 241.5 -102.5t96.5 -247.5q0 -47 -20.5 -60.5t-71.5 -13.5h-408q23 -170 185 -170q61 0 134.5 37t92.5 37q31 0 51.5 -18.5t20.5 -48.5q0 -63 -91 -117q-90 -49 -221 -49q-154 0 -258 104q-102 109 -102 268zM219 424h326 q0 76 -47 123t-111 47q-137 0 -168 -170z" />
<glyph unicode="f" horiz-adv-x="450" d="M-4 618q0 80 127 80l-2 56q0 135 52 206.5t157 71.5q59 0 93 -25.5t34 -68.5q0 -37 -20.5 -52.5t-63.5 -23.5q-41 -6 -52.5 -23.5t-11.5 -72.5v-68h49q55 0 89 -21.5t34 -58.5q0 -79 -120 -79h-3h-53v-406q0 -74 -19.5 -106.5t-70.5 -32.5q-92 0 -92 139v406h-25 q-102 0 -102 79z" />
<glyph unicode="g" horiz-adv-x="790" d="M35 365q0 160 94 266t227 106q55 0 94 -18.5t85 -69.5q20 41 44.5 60.5t47.5 19.5q92 0 92 -143v-443q0 -111 -9.5 -177t-39.5 -116q-89 -153 -313 -153h-3q-137 0 -220 40t-83 101q0 35 22.5 57.5t55.5 22.5q14 0 123 -39q53 -20 110 -20q186 0 187 200l-2 82 q-53 -82 -100.5 -111.5t-112.5 -29.5q-123 0 -213 102q-86 104 -86 263zM227 365q0 -92 45 -147.5t115 -55.5q68 0 113 55.5t45 147.5q0 88 -45 142t-113 54t-114 -54t-46 -142z" />
<glyph unicode="h" horiz-adv-x="778" d="M80 133v756q0 143 92 143t92 -143v-262q51 55 97.5 75.5t103.5 20.5q250 0 250 -274v-316q0 -139 -92 -139q-94 0 -95 139v250q0 98 -29.5 142t-103.5 44q-131 0 -131 -184v-252q0 -139 -92 -139t-92 139z" />
<glyph unicode="i" horiz-adv-x="344" d="M70 922q0 45 30.5 77.5t77.5 32.5q45 0 76 -30.5t31 -79.5q0 -45 -31 -78t-76 -33q-47 0 -77.5 30.5t-30.5 80.5zM86 133v442q0 72 21.5 108t70.5 36q92 0 92 -144v-442q0 -139 -92 -139t-92 139z" />
<glyph unicode="j" horiz-adv-x="344" d="M70 924q0 45 31.5 76.5t76.5 31.5t76 -30.5t31 -77.5t-31 -80t-76 -33q-47 0 -77.5 33t-30.5 80zM86 -150v730q0 141 92 141t92 -141v-730q0 -143 -92 -143t-92 143z" />
<glyph unicode="k" horiz-adv-x="673" d="M80 133v756q0 143 92 143t92 -143v-451l213 226q51 55 101 55q31 0 51 -18.5t20 -49.5q0 -49 -47 -92l-158 -149l211 -252q39 -46 39 -97q0 -33 -24.5 -51t-59.5 -18q-55 0 -100 57l-246 334v-250q0 -139 -92 -139t-92 139z" />
<glyph unicode="l" horiz-adv-x="344" d="M86 133v756q0 143 92 143t92 -143v-756q0 -139 -92 -139t-92 139z" />
<glyph unicode="m" horiz-adv-x="1175" d="M80 135v449q0 145 92 145q53 0 100 -84q41 47 81 66.5t93 19.5q135 0 218 -113q57 63 106 88t113 25q111 0 170 -70.5t59 -205.5v-320q0 -141 -92 -141q-90 0 -90 141v254q0 186 -117 186q-125 0 -125 -184v-256q0 -141 -92 -141t-92 141v254q0 186 -115 186 q-125 0 -125 -184v-256q0 -141 -92 -141t-92 141z" />
<glyph unicode="n" horiz-adv-x="778" d="M80 135v449q0 145 92 145q55 0 100 -82q41 47 87.5 66.5t105.5 19.5q250 0 250 -278v-320q0 -141 -92 -141q-94 0 -95 141v254q0 98 -29.5 143.5t-103.5 45.5q-131 0 -131 -187v-256q0 -141 -92 -141t-92 141z" />
<glyph unicode="o" horiz-adv-x="765" d="M35 360q0 166 100 273q101 108 249 108h3q154 0 252 -106q98 -109 98 -275q0 -168 -98 -274q-98 -104 -252 -104t-254 104q-98 106 -98 274zM227 362q0 -98 45 -152t115 -54t115 56t45 150q0 92 -45 147.5t-115 55.5q-68 0 -114 -55t-46 -148z" />
<glyph unicode="p" horiz-adv-x="796" d="M80 -150v736q0 72 21.5 107.5t70.5 35.5q27 0 50.5 -17.5t49.5 -62.5q74 84 181 84q133 0 223 -104q90 -108 90 -264q0 -158 -92 -269q-92 -106 -223 -106q-51 0 -90 15t-97 65v-220q0 -143 -92 -143t-92 143zM258 360q0 -98 45 -150t117 -52q70 0 115 55t45 147 q0 88 -47.5 144.5t-112.5 56.5q-70 0 -116 -54t-46 -147z" />
<glyph unicode="q" horiz-adv-x="796" d="M35 365q0 160 92 264t223 104q53 0 98.5 -19.5t86.5 -64.5q45 80 100 80q90 0 90 -143v-736q0 -143 -90 -143q-94 0 -94 143v220q-53 -47 -97.5 -63.5t-91.5 -16.5q-129 0 -223 106.5t-94 268.5zM225 360q0 -92 45 -147t117 -55q70 0 114 54t44 148q0 92 -44 146.5 t-114 54.5t-116 -54t-46 -147z" />
<glyph unicode="r" horiz-adv-x="491" d="M80 135v449q0 145 92 145q53 0 100 -84q76 88 150 87q41 0 67.5 -26t26.5 -67q0 -51 -57 -78q-29 -10 -59.5 -22.5t-59.5 -22.5q-49 -23 -62.5 -51.5t-13.5 -95.5v-234q0 -141 -92 -141t-92 141z" />
<glyph unicode="s" horiz-adv-x="565" d="M18 127q0 35 18.5 59.5t47.5 24.5q27 0 125 -43q41 -20 78 -21q35 0 55 18.5t20 43.5q0 43 -129 96q-196 86 -196 210q0 99 71.5 162.5t184.5 63.5q49 0 93 -11t76 -30.5t50 -45t18 -52.5q0 -33 -20.5 -53.5t-52.5 -20.5q-16 0 -62 17q-90 37 -112 37q-68 0 -68 -58 q0 -37 61 -63q33 -14 57.5 -24.5t43.5 -18.5q92 -43 131 -87t39 -114q0 -49 -21.5 -92t-58.5 -75t-88 -49t-109 -17q-113 0 -182.5 38.5t-69.5 104.5z" />
<glyph unicode="t" horiz-adv-x="425" d="M-4 618q0 41 28.5 61.5t98.5 20.5v115q0 72 21.5 107.5t70.5 35.5q90 0 90 -143v-115h37q119 0 119 -82q0 -77 -118 -77h-3h-35v-408q0 -74 -19.5 -106.5t-70.5 -32.5q-92 0 -92 139v408h-25q-102 0 -102 77z" />
<glyph unicode="u" horiz-adv-x="763" d="M76 289v295q0 145 92 145q88 0 88 -145v-250q0 -94 28.5 -137t102.5 -43q72 0 99.5 43t27.5 137v250q0 145 92 145t92 -145v-295q0 -307 -311 -307t-311 307z" />
<glyph unicode="v" horiz-adv-x="606" d="M0 635q0 39 24.5 66.5t63.5 27.5q66 0 94 -96l137 -445l132 459q23 78 86 78q37 0 61.5 -24.5t24.5 -65.5q0 -10 -4.5 -28.5t-10.5 -39.5l-184 -487q-20 -53 -39 -72q-26 -22 -68 -22h-4q-45 0 -68.5 22.5t-45.5 79.5l-191 494q-8 25 -8 53z" />
<glyph unicode="w" horiz-adv-x="1011" d="M0 635q0 39 24.5 66.5t63.5 27.5q66 0 94 -96l129 -408l111 410q18 86 84 86q72 0 94 -90l113 -402l133 418q23 78 86 78q37 0 61.5 -24.5t24.5 -65.5q0 -18 -2 -23q-2 -2 -15 -45l-167 -487q-31 -94 -107 -94q-88 0 -115 100l-106 354l-100 -362q-23 -92 -109 -92 q-45 0 -68.5 22.5t-44.5 79.5l-174 494q-10 37 -10 53z" />
<glyph unicode="x" horiz-adv-x="645" d="M0 84q0 27 7 43t30 43l194 217l-163 168q-37 43 -37 80t24.5 65.5t59.5 28.5q43 0 78 -41l147 -172l133 168q33 45 74 45t67.5 -26.5t26.5 -65.5q0 -35 -43 -86l-152 -164l179 -211q20 -25 32.5 -47t12.5 -51q0 -35 -22.5 -59.5t-57.5 -24.5q-47 0 -88 47l-166 209 l-168 -209q-23 -25 -41 -36t-41 -11q-37 0 -61.5 25.5t-24.5 64.5z" />
<glyph unicode="y" horiz-adv-x="628" d="M4 637q0 37 25.5 64.5t64.5 27.5q35 0 54.5 -22.5t39.5 -71.5l138 -375l149 391q31 78 80 78q90 0 90 -88q0 -12 -4 -30.5t-10 -39.5l-332 -792q-18 -43 -33.5 -60.5t-46.5 -17.5q-92 0 -92 88q0 29 16 68l95 200l-224 527q-10 27 -10 53z" />
<glyph unicode="z" horiz-adv-x="583" d="M0 51q0 35 25 76l317 424h-219q-121 0 -121 84t121 84h350h72q49 -6 49 -51q0 -18 -9.5 -36t-31.5 -50l-311 -410h250q53 0 85.5 -22.5t32.5 -63.5q0 -86 -121 -86h-395q-59 0 -76.5 8t-17.5 43z" />
<glyph unicode="{" horiz-adv-x="532" d="M49 373v106h10q92 0 130 42t38 147v168q0 106 13 135q12 33 45 47q35 20 76.5 27.5t107.5 7.5l33 -2v-107h-15q-80 0 -105.5 -31.5t-25.5 -119.5v-164q0 -92 -22 -133q-29 -53 -105 -68q74 -20 100.5 -69.5t26.5 -135.5v-164q0 -84 25 -115.5t106 -31.5h15v-105l-33 -2 q-63 0 -106.5 6.5t-73.5 24.5q-41 25 -51.5 64t-10.5 116v170q0 104 -37.5 145.5t-130.5 41.5h-10z" />
<glyph unicode="|" horiz-adv-x="655" d="M281 -315v1347h106v-1347h-106z" />
<glyph unicode="}" horiz-adv-x="532" d="M39 -88h14q82 0 107.5 31.5t25.5 115.5v164q0 88 26 135.5t101 65.5q-74 18 -100.5 67.5t-26.5 137.5v164q0 86 -26.5 118.5t-106.5 32.5h-14v107h29q76 0 114.5 -5.5t75.5 -28t48 -63.5t11 -118v-170q0 -100 37 -143.5t129 -43.5h11v-108h-9q-94 0 -131 -40t-37 -145 v-170q0 -78 -2 -84q-8 -66 -63 -96.5t-178 -30.5l-35 2v105z" />
<glyph unicode="~" horiz-adv-x="1116" d="M111 344q0 35 28 64q70 72 136.5 107.5t123.5 35.5q47 0 101 -19q16 -6 59 -25.5t109 -53.5q43 -16 55 -17q29 0 58.5 20.5t68.5 59.5q31 31 68 31t63.5 -26.5t26.5 -65.5t-27 -66q-131 -137 -258 -137q-70 0 -139 37q-45 25 -93.5 51.5t-91.5 26.5q-33 0 -73 -35 q-27 -23 -55.5 -51.5t-65.5 -28.5t-65.5 26.5t-28.5 65.5z" />
<glyph unicode="&#xa4;" horiz-adv-x="839" d="M8 164l148 145q-61 82 -62 193q0 115 62 188l-148 150l76 71l145 -145q78 59 193 59q55 0 105.5 -16t82.5 -43l150 145l71 -71l-145 -150q59 -78 59 -188q0 -115 -59 -193l145 -145l-71 -76l-150 148q-31 -25 -83 -43.5t-105 -18.5q-111 0 -193 62l-145 -148zM197 502 q0 -94 63 -164q63 -68 162 -68q92 0 158 68q63 63 63 164q0 45 -16.5 87t-46 72.5t-69.5 49t-89 18.5q-96 0 -160 -67q-66 -72 -65 -160z" />
<glyph unicode="&#xa9;" horiz-adv-x="1081" d="M43 483q0 207 145.5 352.5t352.5 145.5t352 -145.5t145 -352.5t-145 -352q-145 -141 -352 -141q-209 0 -353 141q-145 145 -145 352zM143 483q0 -162 115 -282q113 -117 283 -117q164 0 280.5 116.5t116.5 282.5t-117 281q-115 117 -280 117q-166 0 -283 -117 q-115 -115 -115 -281zM283 483q0 119 69.5 196t192.5 77q94 0 166 -56q63 -49 63 -100q0 -25 -6 -42t-43 -26q-31 0 -47 17q-2 2 -7 12t-13.5 22.5t-16.5 25t-16 18.5q-29 18 -80 18q-63 0 -101 -44t-38 -118q0 -76 37.5 -120t101.5 -44q51 0 80 19q8 6 16 18.5t15.5 24.5 t12.5 22.5t7 12.5q14 18 49 18q29 -6 39 -20t10 -47q0 -49 -67 -105q-72 -53 -162 -53q-123 0 -192.5 75.5t-69.5 198.5z" />
<glyph unicode="&#xab;" horiz-adv-x="661" d="M35 356q0 53 31 95q20 27 86 79q63 45 67 50q31 18 55 18q37 0 37 -68q0 -27 -10 -43l-8 -8t-21 -18l-137 -105l137 -104q14 -12 20.5 -19.5t8.5 -9.5q10 -16 10 -43q0 -66 -39 -65q-27 0 -53 18q-4 2 -67 49q-29 23 -46.5 38.5t-21.5 19.5q-49 49 -49 116zM354 356 q0 53 31 95q10 14 31.5 33.5t54.5 41.5q33 25 49.5 38.5t18.5 15.5q27 18 55 18q35 0 35 -68q0 -25 -9.5 -39t-27.5 -26l-133 -109l133 -104q37 -25 37 -72q0 -66 -39 -65q-23 0 -64 28q-14 10 -26.5 19.5t-26.5 19.5q-74 61 -86 76q-33 39 -33 98z" />
<glyph unicode="&#xac;" d="M61 317v82h635v-268h-84v186h-551z" />
<glyph unicode="&#xad;" d="M61 350v107h635v-107h-635z" />
<glyph unicode="&#xae;" horiz-adv-x="1126" d="M61 481q0 207 147.5 354.5t354.5 147.5t354.5 -147.5t147.5 -354.5t-147 -354q-150 -143 -355 -143t-354 143q-147 147 -148 354zM160 481q0 -168 116 -286q119 -117 287 -117t285 117q119 118 119 286t-119 285q-117 119 -285 119t-287 -119q-117 -117 -116 -285z M369 221v524h192q111 0 166 -33.5t55 -121.5q0 -133 -161 -133l137 -236h-105l-125 228h-49v-228h-110zM479 524h107q45 0 65.5 15.5t20.5 62.5q0 39 -34 53.5t-79 14.5h-80v-146z" />
<glyph unicode="&#xb0;" horiz-adv-x="540" d="M66 713q0 -43 16 -80t44 -64.5t63.5 -43t76.5 -15.5q43 0 80 15.5t64.5 43t44 64.5t16.5 80t-16.5 79.5t-44 64.5t-64.5 43t-80 15t-78.5 -16t-63.5 -44t-43 -64.5t-15 -77.5zM121 713q0 61 42 103t103 42t105.5 -43t44.5 -102t-45 -105q-43 -43 -105 -43q-59 0 -102 44 t-43 104z" />
<glyph unicode="&#xb6;" horiz-adv-x="727" d="M-6 858q0 -162 110 -235q94 -61 263 -62v-813h55v1364h145v-1364h62v1364h102v41h-389q-158 0 -248 -66q-100 -76 -100 -229z" />
<glyph unicode="&#xb7;" horiz-adv-x="337" d="M96 449q0 -33 20.5 -53.5t53.5 -20.5q29 0 50.5 21.5t21.5 52.5q0 29 -20.5 50t-51.5 21q-33 0 -53.5 -20.5t-20.5 -50.5z" />
<glyph unicode="&#xbb;" horiz-adv-x="661" d="M37 180q0 25 12 43l29 29l137 104l-137 105q-14 12 -20.5 18t-8.5 8q-12 14 -12 43q0 68 43 68q23 0 63 -29q14 -10 27.5 -19t28.5 -20q72 -55 84 -75q30 -42 30 -99q0 -55 -28 -96q-10 -14 -32 -32.5t-54 -45.5q-66 -47 -68 -49q-31 -18 -53 -18q-41 0 -41 65zM358 180 q0 27 11 43q4 6 28 29l135 104l-135 105q-14 12 -20 18l-8 8q-10 16 -11 43q0 68 41 68q23 0 64 -29q14 -10 26.5 -19t26.5 -20q27 -20 43 -34.5t25 -22.5q49 -49 49 -117q0 -57 -31 -96q-10 -14 -31.5 -32.5t-54.5 -45.5q-66 -47 -67 -49q-29 -18 -54 -18q-37 0 -37 65z " />
<glyph unicode="&#xd7;" d="M74 174l229 229l-229 230l76 76l229 -230l229 230l76 -76l-229 -230l229 -229l-76 -76l-229 230l-229 -230z" />
<glyph unicode="&#xf7;" d="M61 350v107h635v-107h-635zM297 166q0 35 23.5 58.5t58.5 23.5t58.5 -23.5t23.5 -58.5t-23.5 -58.5t-58.5 -23.5t-58.5 23.5t-23.5 58.5zM297 641q0 35 23.5 58.5t58.5 23.5t58.5 -23.5t23.5 -58.5t-23.5 -58.5t-58.5 -23.5t-58.5 23.5t-23.5 58.5z" />
<glyph unicode="&#x2000;" horiz-adv-x="682" />
<glyph unicode="&#x2001;" horiz-adv-x="1365" />
<glyph unicode="&#x2002;" horiz-adv-x="682" />
<glyph unicode="&#x2003;" horiz-adv-x="1365" />
<glyph unicode="&#x2004;" horiz-adv-x="455" />
<glyph unicode="&#x2005;" horiz-adv-x="341" />
<glyph unicode="&#x2006;" horiz-adv-x="227" />
<glyph unicode="&#x2007;" horiz-adv-x="227" />
<glyph unicode="&#x2008;" horiz-adv-x="170" />
<glyph unicode="&#x2009;" horiz-adv-x="273" />
<glyph unicode="&#x200a;" horiz-adv-x="75" />
<glyph unicode="&#x2010;" horiz-adv-x="555" d="M49 375q0 92 94 92h281q90 0 90 -92t-92 -92h-281q-92 0 -92 92z" />
<glyph unicode="&#x2011;" horiz-adv-x="555" d="M49 375q0 92 94 92h281q90 0 90 -92t-92 -92h-281q-92 0 -92 92z" />
<glyph unicode="&#x2012;" horiz-adv-x="555" d="M49 375q0 92 94 92h281q90 0 90 -92t-92 -92h-281q-92 0 -92 92z" />
<glyph unicode="&#x2013;" d="M61 350v107h635v-107h-635z" />
<glyph unicode="&#x2014;" horiz-adv-x="1515" d="M61 350v107h1393v-107h-1393z" />
<glyph unicode="&#x2018;" horiz-adv-x="303" d="M45 739q0 100 59 179q57 74 127 73q31 1 41 -24q16 -35 -34 -66q-33 -20 -55.5 -56t-22.5 -69q12 4 20 4q37 0 62.5 -25.5t25.5 -68.5q0 -41 -29.5 -70.5t-74.5 -29.5q-51 0 -85 44t-34 109z" />
<glyph unicode="&#x2019;" horiz-adv-x="303" d="M35 606q-16 35 35 66q33 20 55 56t22 69q-12 -4 -20 -4q-37 0 -62.5 25.5t-25.5 68.5q0 41 29.5 70.5t74.5 29.5q51 0 85 -43.5t34 -109.5q0 -100 -59 -179q-59 -74 -127 -73q-33 0 -41 24z" />
<glyph unicode="&#x201c;" horiz-adv-x="589" d="M45 739q0 100 59 179q57 74 127 73q31 1 41 -24q16 -35 -34 -66q-33 -20 -55.5 -56t-22.5 -69q12 4 20 4q37 0 62.5 -25.5t25.5 -68.5q0 -41 -29.5 -70.5t-74.5 -29.5q-51 0 -85 44t-34 109zM330 739q0 100 59 179q57 74 127 73q31 1 41 -24q16 -35 -35 -66 q-33 -20 -55.5 -56t-22.5 -69q12 4 21 4q37 0 62.5 -25.5t25.5 -68.5q0 -41 -29.5 -70.5t-74.5 -29.5q-51 0 -85 44t-34 109z" />
<glyph unicode="&#x201d;" horiz-adv-x="589" d="M35 606q-16 35 35 66q33 20 55 56t22 69q-12 -4 -20 -4q-37 0 -62.5 25.5t-25.5 68.5q0 41 29.5 70.5t74.5 29.5q51 0 85 -43.5t34 -109.5q0 -100 -59 -179q-59 -74 -127 -73q-33 0 -41 24zM319 606q-16 35 35 66q33 20 55.5 56t22.5 69q-12 -4 -20 -4q-37 0 -62.5 25.5 t-25.5 68.5q0 41 29.5 70.5t74.5 29.5q51 0 85 -43.5t34 -109.5q0 -100 -60 -179q-59 -74 -127 -73q-33 0 -41 24z" />
<glyph unicode="&#x2022;" d="M72 410q0 127 90 217t217 90t217 -90t90 -217t-90 -217.5t-217 -90.5t-217 90.5t-90 217.5z" />
<glyph unicode="&#x2026;" horiz-adv-x="1226" d="M96 113q0 49 33 86t78 37t75.5 -35t30.5 -88q0 -51 -29.5 -85t-76.5 -34t-79 33.5t-32 85.5zM506 113q0 49 32.5 86t77.5 37t76 -35t31 -88q0 -51 -29.5 -85t-77.5 -34q-47 0 -78.5 33.5t-31.5 85.5zM915 113q0 49 33 86t78 37t76 -35t31 -88q0 -51 -30 -85t-77 -34 t-79 33.5t-32 85.5z" />
<glyph unicode="&#x202f;" horiz-adv-x="273" />
<glyph unicode="&#x205f;" horiz-adv-x="341" />
<glyph unicode="&#x25fc;" horiz-adv-x="727" d="M0 0v727h727v-727h-727z" />
</font>
</defs>
</svg>
